<svg xmlns="http://www.w3.org/2000/svg" width="48.27" height="48.277" viewBox="0 0 48.27 48.277"><defs><style>.a{fill:#b39c8b;}</style></defs><path class="a" d="M17.815,53.807a26.044,26.044,0,0,0,2.99-.389c.818-.094,1.884-.288,3.138-.53a7.512,7.512,0,0,1-.094-1.448c.047-1.931.094-3.379.094-4.25V39.326c-1.4.147-2.46.288-3.185.436-1.059.194-1.689.288-1.837.288a1.044,1.044,0,0,1-.872-.389,1.5,1.5,0,0,1-.577-.677,2.867,2.867,0,0,1-.147-.918c0-.389.241-.724.724-1.113l.288.147c.094,0,.288.047.53.047h.63c.147,0,1.643-.094,4.438-.389V26.775c0-.771-.047-1.448-.094-2.125-1.307.08-2.36.2-3.151.322A24.12,24.12,0,0,0,17.345,53.9Z" transform="translate(-14 -17.51)"/><path class="a" d="M51.835,56.143A7.276,7.276,0,0,1,50.629,51.6,98.352,98.352,0,0,1,51.4,39.436l.436-5.216L50,34.314l-2.554.2a13.123,13.123,0,0,1-.483,1.643q-.583,1.589-2.32,8.977c-1.207,4.921-1.978,8.112-2.266,9.56-.335,1.448-.577,2.46-.677,3.091a1.525,1.525,0,0,1-1.254.63,2.274,2.274,0,0,1-1.4-.818,3.106,3.106,0,0,1-.724-1.5,3.616,3.616,0,0,1,.335-1.3c.194-.577.436-1.4.724-2.367.288-1.012.818-2.749,1.542-5.263C41.6,44.665,42.369,42,43.14,39.161c.483-1.837.918-3.285,1.207-4.3-1.207.194-2.266.335-3.185.53l-1.3.335a4.435,4.435,0,0,1-1.012.147,1.329,1.329,0,0,1-1.207-.965,2.68,2.68,0,0,1-.63-1.542c0-.194.094-.335.389-.436,2.561-.389,4.921-.724,7.046-.918s4.2-.389,6.128-.53c3.185-.194,5.169-.389,5.987-.483l2.172-.288a4.578,4.578,0,0,1,1.884.818c.918.577,1.4,1.059,1.4,1.448a1.167,1.167,0,0,1-1.207,1.3,5.942,5.942,0,0,1-1.6-.194,9.458,9.458,0,0,0-1.542-.147c-.724,0-1.643.047-2.7.094-.194.818-.335,1.736-.483,2.7q-.865,8.98-.872,15.353a4.9,4.9,0,0,0,.335,2.078c.288.483.918.771,1.978.771a7.165,7.165,0,0,0,3.124-.945A24.113,24.113,0,0,0,56.1,19.41c-.034,0-.074-.007-.107-.007-.241,0-.53-.047-.872-.047-1.16,0-3.044.147-5.6.335q-3.912.362-5.792.724a16.258,16.258,0,0,1-2.414.389,1.044,1.044,0,0,1-.872-.389,1.394,1.394,0,0,1-.577-.724,2.391,2.391,0,0,1-.147-.872,1.647,1.647,0,0,1,.724-1.207l.288.147c.094,0,.288.047.53.047a2.853,2.853,0,0,0,.63.047c.194,0,2.219-.194,6.128-.577,1.716-.174,3.117-.315,4.23-.429A24.128,24.128,0,0,0,27.1,18.318c3.077-.228,4.914-.416,5.565-.556a6.99,6.99,0,0,1,2.266.047,6.833,6.833,0,0,1,.965.63,1.464,1.464,0,0,1,.436,1.113,1.549,1.549,0,0,1-.389,1.012,1.18,1.18,0,0,1-.965.389,2.071,2.071,0,0,1-.677-.094c-.335,0-.63-.047-.818-.047-.288,0-.577-.047-.965-.047-.577,0-1.4.047-2.46.094l-.094.53a12.034,12.034,0,0,0-.241,2.367v9.171a18.927,18.927,0,0,0,2.561-.288,6.584,6.584,0,0,1,1.16-.241,2.191,2.191,0,0,1,1.012.241c.288.194.63.389.965.63a1.247,1.247,0,0,1,.436,1.012,1.549,1.549,0,0,1-.389,1.012,1.309,1.309,0,0,1-.965.335,4.044,4.044,0,0,1-.677-.047c-.288,0-.53-.047-.818-.047s-.577-.047-.918-.047c-.577,0-1.4.047-2.367.094v8.353a31.584,31.584,0,0,0,.241,4.78l2.172-.436a24.966,24.966,0,0,1,2.655-.335A1.471,1.471,0,0,1,36,48.52a4.088,4.088,0,0,1,.389,1.012,1.179,1.179,0,0,1-.288.872.975.975,0,0,1-.483.288c-.577.047-1.354.147-2.32.288a53.1,53.1,0,0,0-5.357,1.113c-2.367.577-3.962,1.012-4.78,1.254-.308.087-.583.154-.851.215a24.141,24.141,0,0,0,32.817,4.063A4.393,4.393,0,0,1,51.835,56.143Z" transform="translate(-16.739 -14)"/></svg>